<?xml version="1.0" encoding="UTF-8" standalone="no"?>
<!-- Created with Inkscape (http://www.inkscape.org/) -->
<svg
   xmlns:dc="http://purl.org/dc/elements/1.1/"
   xmlns:cc="http://web.resource.org/cc/"
   xmlns:rdf="http://www.w3.org/1999/02/22-rdf-syntax-ns#"
   xmlns:svg="http://www.w3.org/2000/svg"
   xmlns="http://www.w3.org/2000/svg"
   xmlns:sodipodi="http://sodipodi.sourceforge.net/DTD/sodipodi-0.dtd"
   xmlns:inkscape="http://www.inkscape.org/namespaces/inkscape"
   version="1.0"
   width="596.00006"
   height="693.50238"
   id="svg2"
   sodipodi:version="0.32"
   inkscape:version="0.44+devel"
   sodipodi:docname="Scales_Of_Justice.svg"
   inkscape:output_extension="org.inkscape.output.svg.inkscape"
   sodipodi:docbase="C:\Documents and Settings\HP_Owner\Desktop">
  <metadata
     id="metadata20">
    <rdf:RDF>
      <cc:Work
         rdf:about="">
        <dc:format>image/svg+xml</dc:format>
        <dc:type
           rdf:resource="http://purl.org/dc/dcmitype/StillImage" />
      </cc:Work>
    </rdf:RDF>
  </metadata>
  <sodipodi:namedview
     inkscape:window-height="968"
     inkscape:window-width="1280"
     inkscape:pageshadow="2"
     inkscape:pageopacity="0.0"
     guidetolerance="10.0"
     gridtolerance="10.0"
     objecttolerance="10.0"
     borderopacity="1.0"
     bordercolor="#666666"
     pagecolor="#ffffff"
     id="base"
     inkscape:zoom="0.66927159"
     inkscape:cx="298.00003"
     inkscape:cy="423.47436"
     inkscape:window-x="-4"
     inkscape:window-y="-4"
     inkscape:current-layer="svg2" />
  <defs
     id="defs4" />
  <path
     d="M 176.00004,558.50239 C 176.00937,578.38734 136.60769,594.5093 88.000018,594.5093 C 39.39235,594.5093 -0.0093320898,578.38734 -2.389474e-006,558.50239 L 88.000018,558.50239 L 176.00004,558.50239 z"
     style="fill:#000000;fill-opacity:1;fill-rule:evenodd;stroke:none;stroke-width:8.56962395;stroke-linecap:round;stroke-linejoin:miter;stroke-miterlimit:4;stroke-dasharray:none;stroke-opacity:1"
     id="path1880" />
  <path
     d="M 172.63806,558.94534 L 88.55714,108.9774"
     style="fill:none;fill-rule:evenodd;stroke:#000000;stroke-width:5.0320549;stroke-linecap:butt;stroke-linejoin:miter;stroke-miterlimit:4;stroke-dasharray:none;stroke-opacity:1;display:inline"
     id="path2777" />
  <path
     d="M 3.557135,558.94524 L 87.63806,108.9773"
     style="fill:none;fill-rule:evenodd;stroke:#000000;stroke-width:5.0320549;stroke-linecap:butt;stroke-linejoin:miter;stroke-miterlimit:4;stroke-dasharray:none;stroke-opacity:1;display:inline"
     id="path2779" />
  <path
     d="M 596.00006,558.50237 C 596.00939,578.38732 556.60771,594.50928 508.00004,594.50928 C 459.39237,594.50928 419.99069,578.38732 420.00002,558.50237 L 508.00004,558.50237 L 596.00006,558.50237 z"
     style="fill:#000000;fill-opacity:1;fill-rule:evenodd;stroke:none;stroke-width:6.85569906;stroke-linecap:round;stroke-linejoin:miter;stroke-miterlimit:4;stroke-dasharray:none;stroke-opacity:1"
     id="path2788" />
  <path
     d="M 592.63807,558.94534 L 508.55715,108.9774"
     style="fill:none;fill-rule:evenodd;stroke:#000000;stroke-width:5.0320549;stroke-linecap:butt;stroke-linejoin:miter;stroke-miterlimit:4;stroke-dasharray:none;stroke-opacity:1;display:inline"
     id="path2790" />
  <path
     d="M 423.55715,558.94522 L 507.63807,108.97728"
     style="fill:none;fill-rule:evenodd;stroke:#000000;stroke-width:5.0320549;stroke-linecap:butt;stroke-linejoin:miter;stroke-miterlimit:4;stroke-dasharray:none;stroke-opacity:1;display:inline"
     id="path2792" />
  <path
     d="M 408.00001,693.5024 C 408.00001,666.44045 358.75133,644.5024 298.00001,644.5024 C 237.24869,644.5024 188.00001,666.44045 188.00001,693.5024 L 298.00001,693.5024 L 408.00001,693.5024 z"
     style="fill:#000000;fill-opacity:1;fill-rule:evenodd;stroke:none;stroke-width:0;stroke-linecap:round;stroke-linejoin:miter;stroke-miterlimit:4;stroke-dasharray:none;stroke-opacity:1"
     id="path2794" />
  <path
     d="M 325.00001,650.50237 L 299.00001,0.50237"
     style="fill:none;fill-rule:evenodd;stroke:#000000;stroke-width:1px;stroke-linecap:butt;stroke-linejoin:miter;stroke-opacity:1"
     id="path2800" />
  <path
     d="M 272.00001,650.50237 L 298.00001,0.50237"
     style="fill:none;fill-rule:evenodd;stroke:#000000;stroke-width:1px;stroke-linecap:butt;stroke-linejoin:miter;stroke-opacity:1"
     id="path2802" />
  <path
     d="M 324.79788,646.44804 L 298.4897,0.499996 L 271.80001,647.55537 L 324.79788,646.44804 z"
     style="fill:#000000;fill-opacity:1;fill-rule:evenodd;stroke:#000000;stroke-width:1px;stroke-linecap:butt;stroke-linejoin:miter;stroke-opacity:1"
     id="path3695" />
  <path
     d="M 321.50001,132.50239 C 321.50001,145.48108 310.97871,156.0024 298.00002,156.0024 C 285.02133,156.0024 274.50003,145.48108 274.50003,132.50239 C 274.50003,119.5237 285.02133,109.00238 298.00002,109.00238 C 310.97871,109.00238 321.50001,119.5237 321.50001,132.50239 z"
     style="fill:#000000;fill-opacity:1;fill-rule:evenodd;stroke:none;stroke-width:0;stroke-linecap:round;stroke-linejoin:miter;stroke-miterlimit:4;stroke-dasharray:none;stroke-opacity:1"
     id="path4596" />
  <path
     d="M 297.34329,108.4495 C 66.309155,134.10328 87.13907,109.6636 86.88177,108.74455 C 166.49992,120.51279 238.4504,96.33273 297.34329,85.65316 L 297.34329,85.65316 L 297.34329,108.4495 z"
     style="fill:#000000;fill-opacity:1;fill-rule:evenodd;stroke:#000000;stroke-width:1px;stroke-linecap:butt;stroke-linejoin:miter;stroke-opacity:1"
     id="path15711"
     sodipodi:nodetypes="ccccc" />
  <path
     d="M 299,108.44931 C 530.03413,134.10309 509.20422,109.66341 509.46152,108.74436 C 429.84337,120.5126 357.89289,96.332538 299,85.652968 L 299,85.652968 L 299,108.44931 z"
     style="fill:#000000;fill-opacity:1;fill-rule:evenodd;stroke:#000000;stroke-width:1px;stroke-linecap:butt;stroke-linejoin:miter;stroke-opacity:1"
     id="path2214"
     sodipodi:nodetypes="ccccc" />
</svg>
